#!OML:ASF I:\Actors\actors\Patient Classification 1\Patient 1\Session 1\Subject1.ASF
:FULLY-SPECIFIED
:DEGREES
588
root 0.489888 17.678 9.04039 22.4026 26.2157 -13.3215
lowerback 15.0052 3.29035 1.63902
upperback -0.586322 4.57214 -0.90117
thorax -8.84908 2.09689 -2.9075
lowerneck -20.9643 3.23953 7.884
upperneck 8.8195 2.34257 -1.07724
head 6.15427 1.34202 -1.33684
rclavicle 6.99722e-014 2.38542e-015
rhumerus 28.5725 43.7568 -77.2003
rradius 66.9499
rwrist -37.5719
rhand 11.946 -66.377
rfingers 7.12502
rthumb 36.9696 812.449
lclavicle 6.99722e-014 2.38542e-015
lhumerus 16.298 -27.1156 61.2582
lradius 70.0375
lwrist 75.409
lhand -28.5945 29.4116
lfingers 7.12502
lthumb -1.96008 59.3823
rfemur -17.6943 26.306 24.4174
rtibia -2.46796
rfoot -26.5942 -40.9078
rtoes 23.2022
lfemur -36.6786 -40.8802 23.9426
ltibia -1.08809
lfoot -1.87953 46.8061
ltoes -3.66085
589
root 0.406372 17.6763 9.05321 21.7076 26.0445 -13.4468
lowerback 14.7567 3.30646 1.77717
upperback -0.738688 4.61241 -0.958408
thorax -8.85625 2.10811 -3.04397
lowerneck -21.0921 3.27981 7.83802
upperneck 9.64775 2.35781 -0.892199
head 6.4429 1.38002 -1.264
rclavicle 5.96354e-014 4.21423e-014
rhumerus 26.315 44.6736 -78.0992
rradius 68.1409
rwrist -38.0448
rhand 10.465 -66.6247
rfingers 7.12502
rthumb 35.5672 813.046
lclavicle 5.96354e-014 4.21423e-014
lhumerus 13.9523 -28.2534 61.7897
lradius 71.2569
lwrist 75.612
lhand -29.0369 29.232
lfingers 7.12502
lthumb -2.38733 59.1983
rfemur -17.1973 26.2712 25.0603
rtibia -2.22598
rfoot -25.7188 -41.0365
rtoes 21.4324
lfemur -35.6081 -40.7817 23.391
ltibia -1.05072
lfoot -2.00417 46.4999
ltoes -4.11966
590
root 0.321442 17.6744 9.06724 21.0207 25.8776 -13.5419
lowerback 14.427 3.28981 1.83524
upperback -0.888863 4.5922 -1.03198
thorax -8.82289 2.09482 -3.13396
lowerneck -21.3128 3.35374 7.85475
upperneck 10.6791 2.36609 -0.571928
head 6.81433 1.43542 -1.15509
rclavicle -7.15625e-015 9.54166e-015
rhumerus 24.0818 45.681 -79.0575
rradius 69.3648
rwrist -38.6264
rhand 9.42845 -67.0806
rfingers 7.12502
rthumb 34.584 813.733
lclavicle -7.15625e-015 9.54166e-015
lhumerus 11.3958 -29.3883 62.2917
lradius 72.5368
lwrist 75.6945
lhand -29.3693 29.1169
lfingers 7.12502
lthumb -2.70837 59.0794
rfemur -16.7049 26.21 25.6739
rtibia -1.94192
rfoot -25.0907 -41.0638
rtoes 19.8419
lfemur -34.4993 -40.5032 22.7036
ltibia -0.975204
lfoot -1.99953 46.0136
ltoes -4.68259
591
root 0.234728 17.6725 9.08015 20.3284 25.6848 -13.6106
lowerback 14.1092 3.29926 1.83163
upperback -1.06171 4.59791 -1.0875
thorax -8.82552 2.09606 -3.17755
lowerneck -21.5958 3.42797 7.94162
upperneck 11.8542 2.35636 -0.347225
head 7.24829 1.48205 -1.08868
rclavicle -9.54166e-015 2.38542e-014
rhumerus 21.5856 46.6205 -80.2542
rradius 70.5468
rwrist -39.191
rhand 8.70882 -67.6401
rfingers 7.12502
rthumb 33.9007 814.446
lclavicle -9.54166e-015 2.38542e-014
lhumerus 8.65924 -30.5101 62.9968
lradius 73.8605
lwrist 75.6197
lhand -29.4353 29.1056
lfingers 7.12502
lthumb -2.77212 59.0674
rfemur -16.1634 26.1622 26.2846
rtibia -1.68965
rfoot -24.4909 -41.0552
rtoes 18.4134
lfemur -33.3361 -40.0978 21.913
ltibia -0.889039
lfoot -2.10999 45.4522
ltoes -4.97342
592
root 0.145342 17.6706 9.09316 19.6432 25.4562 -13.6911
lowerback 13.7984 3.31459 1.79528
upperback -1.26739 4.61011 -1.10332
thorax -8.87305 2.10154 -3.16384
lowerneck -21.6829 3.5387 8.14738
upperneck 12.8311 2.42933 -0.409567
head 7.59621 1.54294 -1.12847
rclavicle -4.77083e-015 3.65764e-014
rhumerus 18.5818 47.4991 -81.9734
rradius 71.6799
rwrist -39.5286
rhand 9.37044 -67.8499
rfingers 7.12502
rthumb 34.529 814.515
lclavicle -4.77083e-015 3.65764e-014
lhumerus 5.72216 -31.5395 63.9381
lradius 75.2458
lwrist 75.718
lhand -29.7298 29.1743
lfingers 7.12502
lthumb -3.05652 59.1322
rfemur -15.6057 26.1566 26.9201
rtibia -1.48385
rfoot -23.8941 -41.005
rtoes 17.2875
lfemur -32.2096 -39.7306 21.2174
ltibia -0.796628
lfoot -2.44514 45.0022
ltoes -5.02138
593
root 0.0543352 17.6697 9.10817 18.9461 25.24 -13.6963
lowerback 13.5286 3.30442 1.72898
upperback -1.46191 4.58302 -1.12953
thorax -8.93536 2.08892 -3.13908
lowerneck -21.5707 3.6487 8.3136
upperneck 13.5624 2.54098 -0.485073
head 7.83247 1.61402 -1.16454
rclavicle 1.35174e-014 1.27222e-014
rhumerus 15.2014 48.3509 -84.0614
rradius 72.8922
rwrist -39.7683
rhand 10.5042 -67.7272
rfingers 7.12502
rthumb 35.6044 814.14
lclavicle 1.35174e-014 1.27222e-014
lhumerus 2.79394 -32.5623 64.9726
lradius 76.5192
lwrist 75.7595
lhand -30.1428 29.0702
lfingers 7.12502
lthumb -3.45534 59.0219
rfemur -14.8581 25.2473 27.7779
rtibia -1.37901
rfoot -22.937 -40.1055
rtoes 16.4819
lfemur -31.0779 -39.4414 20.4663
ltibia -0.687891
lfoot -2.72729 44.5785
ltoes -5.26842
